<svg width="128" height="128" viewBox="0 0 128 128" fill="none" xmlns="http://www.w3.org/2000/svg">
<g clip-path="url(#clip0_20_2)">
<circle cx="64.5" cy="63.5" r="58.5" fill="#0B9DBB"/>
<path d="M34.3438 30.5938H64.9531V36.1719L58.3438 36.5469L57.5 37.6719L53.5625 57.6406H77.5625L81.4062 38.1875L79.9531 36.5469L74.1875 35.9375V30.5938H105.219V36.0781L98.5625 36.6406L97.5312 37.7656L87.9219 87.125L88.6719 88.6719L95.2344 89.4219V95H64.1094V89.2344L70.25 88.6719L71.8906 87.0312L76.2031 64.7656H52.2031L47.8906 87.0312L48.8281 88.9531L55.2969 89.3281V95H23.7969V89.3281L30.0312 88.7656L31.7656 87.125L41.2812 38.0938L40.2969 36.5469L34.3438 36.2656V30.5938Z" fill="white"/>
<mask id="mask0_20_2" style="mask-type:alpha" maskUnits="userSpaceOnUse" x="7" y="54" width="122" height="84">
<path d="M42.5 75.5L8 78V79.5V99.5L46.5 137L106 129.5L128 66.5L122.5 59L113.5 55.5L89 63.5L65.5 66.5L42.5 75.5Z" fill="#D9D9D9" stroke="black"/>
</mask>
<g mask="url(#mask0_20_2)">
<circle cx="64.5" cy="63.5" r="58.5" fill="#3A693A"/>
<path d="M34.3438 30.5938H64.9531V36.1719L58.3438 36.5469L57.5 37.6719L53.5625 57.6406H77.5625L81.4062 38.1875L79.9531 36.5469L74.1875 35.9375V30.5938H105.219V36.0781L98.5625 36.6406L97.5312 37.7656L87.9219 87.125L88.6719 88.6719L95.2344 89.4219V95H64.1094V89.2344L70.25 88.6719L71.8906 87.0312L76.2031 64.7656H52.2031L47.8906 87.0312L48.8281 88.9531L55.2969 89.3281V95H23.7969V89.3281L30.0312 88.7656L31.7656 87.125L41.2812 38.0938L40.2969 36.5469L34.3438 36.2656V30.5938Z" fill="#BCEFFF"/>
</g>
</g>
<defs>
<clipPath id="clip0_20_2">
<rect width="128" height="128" fill="white"/>
</clipPath>
</defs>
</svg>
